<?xml version="1.0" standalone="no"?>
<!DOCTYPE svg PUBLIC "-//W3C//DTD SVG 20010904//EN"
 "http://www.w3.org/TR/2001/REC-SVG-20010904/DTD/svg10.dtd">
<svg version="1.0" xmlns="http://www.w3.org/2000/svg"
 width="300.000000pt" height="300.000000pt" viewBox="0 0 300.000000 300.000000"
 preserveAspectRatio="xMidYMid meet">
<metadata>
Created by potrace 1.14, written by Peter Selinger 2001-2017
</metadata>
<g transform="translate(0.000000,300.000000) scale(0.100000,-0.100000)"
fill="#000000" stroke="none">
<path d="M434 2362 c-38 -6 -69 -23 -87 -48 -17 -23 -18 -67 -20 -752 l-2
-727 -94 0 -95 0 1 -63 c1 -76 15 -113 52 -135 27 -16 125 -17 1311 -17 1186
0 1284 1 1311 17 38 23 51 58 47 134 l-3 64 -87 0 c-49 0 -89 2 -89 5 -1 3 -2
329 -3 725 -2 670 -3 722 -19 746 -36 54 0 52 -1141 53 -584 1 -1071 0 -1082
-2z m2113 -125 c17 -16 18 -59 18 -655 l0 -637 -1065 0 -1065 0 0 638 c0 632
0 639 21 656 18 15 106 16 1047 16 968 0 1027 -1 1044 -18z m-747 -1439 c0
-41 -21 -68 -53 -69 -12 0 -132 -1 -265 -1 -276 1 -280 2 -277 70 1 20 3 37 4
37 0 0 134 0 296 0 l295 0 0 -37z"/>
<path d="M550 2077 c-1 -40 -2 -286 -3 -547 l-2 -475 955 0 955 0 0 547 0 547
-952 0 -953 0 0 -72z m1140 -150 c0 -3 -60 -150 -134 -328 l-134 -324 -56 -2
-56 -1 16 36 c8 20 31 75 50 122 19 47 41 99 48 115 8 17 44 104 82 195 37 91
71 170 76 176 7 10 108 20 108 11z m-504 -68 c-10 -14 -114 -131 -193 -217
-18 -19 -33 -38 -33 -41 0 -7 29 -40 143 -164 45 -49 82 -95 82 -101 0 -6 -17
-10 -45 -8 -40 3 -51 9 -99 60 -149 159 -191 205 -191 211 0 3 17 24 36 46 20
22 64 71 98 109 33 38 70 80 81 92 21 22 44 29 101 29 27 0 30 -2 20 -16z
m771 -34 c61 -67 131 -144 169 -187 l32 -35 -27 -30 c-14 -16 -56 -63 -92
-104 -37 -41 -80 -89 -95 -106 -26 -30 -34 -33 -82 -33 l-54 0 40 48 c22 26
54 63 72 82 78 87 121 140 119 147 -1 6 -97 115 -154 177 -6 6 -27 29 -47 51
l-36 41 55 -1 c53 0 56 -2 100 -50z"/>
</g>
</svg>
